<svg width="40" height="40" viewBox="0 0 40 40" fill="none" xmlns="http://www.w3.org/2000/svg">
<rect width="40" height="40" rx="20" fill="#F0EACF"/>
<path d="M15.4647 9.06618C16.638 9.01267 17.0126 9 20 9C22.9874 9 23.362 9.01267 24.5353 9.06618C25.7061 9.1196 26.5057 9.30558 27.2054 9.57745C27.9288 9.85857 28.5422 10.2347 29.1538 10.8462C29.7653 11.4577 30.1414 12.0712 30.4225 12.7946C30.6944 13.4943 30.8804 14.2939 30.9338 15.4647C30.9873 16.638 31 17.0126 31 20C31 22.9874 30.9873 23.362 30.9338 24.5353C30.8804 25.7061 30.6944 26.5057 30.4225 27.2054C30.1414 27.9288 29.7653 28.5422 29.1538 29.1538C28.5422 29.7653 27.9288 30.1414 27.2054 30.4225C26.5057 30.6944 25.7061 30.8804 24.5353 30.9338C23.362 30.9873 22.9874 31 20 31C17.0126 31 16.638 30.9873 15.4647 30.9338C14.2939 30.8804 13.4943 30.6944 12.7946 30.4225C12.0712 30.1414 11.4578 29.7653 10.8463 29.1538C10.2347 28.5422 9.8586 27.9288 9.57749 27.2054C9.30554 26.5057 9.11963 25.7061 9.06615 24.5353C9.01264 23.362 9 22.9874 9 20C9 17.0126 9.01264 16.638 9.06615 15.4647C9.11963 14.2939 9.30554 13.4943 9.57749 12.7946C9.85857 12.0712 10.2347 11.4577 10.8463 10.8462C11.4578 10.2347 12.0712 9.85857 12.7946 9.57745C13.4943 9.30558 14.2939 9.1196 15.4647 9.06618Z" fill="#758554"/>
<path d="M19.9993 14.3513C16.8795 14.3513 14.3506 16.8803 14.3506 20C14.3506 23.1196 16.8795 25.6486 19.9993 25.6486C23.1189 25.6486 25.6479 23.1196 25.6479 20C25.6479 16.8803 23.1189 14.3513 19.9993 14.3513ZM27.1911 14.1281C27.1911 14.8572 26.6001 15.4481 25.8711 15.4481C25.1421 15.4481 24.5511 14.8572 24.5511 14.1281C24.5511 13.3991 25.1421 12.8081 25.8711 12.8081C26.6001 12.8081 27.1911 13.3991 27.1911 14.1281Z" fill="#F0EACF"/>
<path d="M16 20.0029C16 22.2111 17.7911 24 19.9985 24C22.2065 24 24 22.2111 24 20.0029C24 17.7912 22.2065 16 19.9985 16C17.7911 16 16 17.7912 16 20.0029Z" fill="#758554"/>
</svg>
