<svg width="41" height="40" viewBox="0 0 41 40" fill="none" xmlns="http://www.w3.org/2000/svg">
<rect x="0.5" width="40" height="40" rx="20" fill="#7C7670"/>
<path d="M26.0771 27.7155C26.0174 27.8643 25.9266 27.9986 25.8108 28.1095C25.6949 28.2203 25.5567 28.3051 25.4055 28.3582C25.2542 28.4113 25.0933 28.4314 24.9336 28.4172C24.7739 28.403 24.6191 28.3548 24.4795 28.2759L20.1513 24.9128L17.3734 27.4756C17.309 27.5232 17.2336 27.5539 17.1541 27.5647C17.0747 27.5756 16.9939 27.5663 16.919 27.5377L17.4515 22.773L17.4686 22.7865L17.4795 22.6924C17.4795 22.6924 25.268 15.6014 25.5853 15.2993C25.9065 14.998 25.8005 14.9326 25.8005 14.9326C25.8188 14.565 25.2241 14.9326 25.2241 14.9326L14.9045 21.5716L10.6069 20.108C10.6069 20.108 9.9468 19.8712 9.88462 19.3507C9.81925 18.8341 10.6284 18.5535 10.6284 18.5535L27.7153 11.7654C27.7153 11.7654 29.1199 11.1396 29.1199 12.176L26.0771 27.7155Z" fill="white"/>
</svg>
