<svg width="1440" height="50" viewBox="0 0 1440 50" fill="none" xmlns="http://www.w3.org/2000/svg">
<g clip-path="url(#clip0_76_993)">
<path d="M-5.21922 42.6379C-4.48464 43.6494 -3.75732 44.6763 -3.03337 45.7146C-2.88352 49.379 -2.34209 53.2761 -2.34209 55.1463C-2.34209 60.9175 -71.4096 85.1235 -64.4999 88.5C-52.5569 94.3361 -59.7209 114.175 -56.9999 124C-53.1952 137.737 56.0623 125.511 69.9286 131.575C90.5707 140.602 111.846 148.897 131.924 158.606C150.564 167.62 171.164 175.294 193.028 177.686C219.807 180.616 249.43 179.532 276.328 178.322C322.523 176.246 367.843 168.565 413.06 161.468C490.432 149.324 570.231 155.738 645.011 173.976C668.937 179.811 693.814 182.834 718.309 186.909L722.142 187.546C752.629 192.616 783.067 197.678 813.323 203.551C879.55 216.406 946.531 226.484 1014.79 229.204C1058.26 230.936 1101.94 232.639 1145.22 228.038C1177.86 224.568 1210.08 219.367 1242.91 216.908C1283.08 213.898 1323.36 214.434 1363.61 212.667C1399.01 211.114 1434.34 208.033 1469.58 204.96L1475.4 204.452C1545.44 198.354 1614.57 189.241 1685.16 189.241C1735.33 189.241 1786.61 192.214 1835.8 183.092C1863.37 177.98 1881.98 165.518 1895.05 146.097C1903.7 133.264 1908.89 118.787 1908.89 104.385C1908.89 95.3408 1910.38 86.9837 1914.1 78.361C1918.33 68.5332 1929.74 63.257 1939.72 56.9483C1943.64 54.4671 1977.36 37.1277 1965.48 31.5075C1961.27 29.5185 1951.83 29.2133 1947.12 28.7514C1929.72 27.0448 1912.8 25.1473 1895.19 25.1473C1872.39 25.1473 1846.87 22.8946 1824.63 27.1084C1816.36 28.6751 1809.89 34.3572 1801.21 34.6876C1794.95 34.9257 1788.56 34.7392 1782.3 34.6876C1773.72 34.617 1763.73 33.4596 1756.61 29.3875C1749.13 25.1094 1745.39 21.3993 1735.44 21.3312C1697.35 21.0704 1659.64 20.3243 1623.58 9.61782C1613.32 6.5732 1612.49 8.68901 1602.2 11.3669C1593.47 13.6398 1583.97 15.9114 1574.73 16.561C1562.09 17.4504 1548.34 17.3597 1535.69 17.5151C1520.06 17.7069 1504.38 18.1485 1490.2 12.8509C1486.21 11.3585 1482.71 10.9839 1479.04 8.87579C1475.57 6.88864 1472.17 5.22001 1467.73 5.11267C1460.81 4.94531 1455.18 7.97476 1448.21 7.97476C1434.99 7.97476 1421.77 7.91424 1408.55 7.97476C1391.3 8.05371 1374.49 10.7505 1357.31 10.8369C1316.25 11.0431 1275.19 10.8369 1234.14 10.8369C1210.74 10.8369 1187.64 11.2781 1164.4 13.6989C1136.24 16.6317 1108.74 17.5151 1080.35 17.5151C1051.17 17.5151 1021.53 18.4725 992.458 16.137C966.662 14.0648 941.23 10.2467 915.392 8.39878C888.525 6.47721 861.795 3.29361 834.764 3.20461C805.394 3.10791 776.333 4.47505 747.012 5.64269C709.095 7.15267 671.482 7.97476 633.503 7.97476C599.707 7.97476 566.595 7.92313 533.077 4.15864C465.596 -3.42043 397.167 1.53669 329.349 2.25058C295.433 2.60761 261.072 7.9803 227.76 12.7979C211.763 15.1113 196.233 19.7986 180.013 21.0662C168.022 22.0033 155.603 21.3312 143.569 21.3312H2.17911C-0.158051 21.3312 -8.50839 20.1683 -9.4664 23.1333C-10.4778 26.2635 -9.74041 30.013 -9.74041 33.2566C-9.74041 36.8417 -7.45219 39.5632 -5.21922 42.6379Z" fill="#758554"/>
<path d="M0 39.851C10.252 39.1696 19.9838 36.0526 29.7055 33.4059C41.5528 30.1805 54.9257 28.9256 67.3238 28.7542C95.6141 28.3631 124.336 29.5316 152.549 31.2202C183.983 33.1016 215.763 34.7822 246.724 28.53C276.083 22.6015 306.245 12.68 336.295 10.2595C373.598 7.25464 410.029 6.24146 446.75 13.6782C488.982 22.2312 532.142 20.6838 575.171 20.6838C607.052 20.6838 637.739 24.1123 669.411 26.7366C713.153 30.361 757.263 28.9762 801.14 29.9872C850.681 31.1287 900.24 30.7718 949.797 30.7718C971.194 30.7718 992.704 30.218 1014.07 31.3323C1029.46 32.1348 1044.5 35.029 1059.93 35.5916C1098.76 37.0074 1138.42 32.7723 1176.93 37.8334C1190.69 39.6414 1206.38 43.8862 1220.32 43.8862C1269.71 43.8862 1319.39 45.1366 1368.53 39.3466C1388.74 36.9651 1409.2 38.1855 1429.49 36.3202C1440.89 35.2726 1452.54 35.8158 1464 35.8158" stroke="#FEFFF6" stroke-linecap="round"/>
</g>
<defs>
<clipPath id="clip0_76_993">
<rect width="1440" height="50" fill="white"/>
</clipPath>
</defs>
</svg>
