<svg width="1466" height="41" viewBox="0 0 1466 41" fill="none" xmlns="http://www.w3.org/2000/svg">
<path d="M1.39858 39.834C11.6357 38.9568 21.3061 35.6545 30.9755 32.8225C42.7591 29.3713 56.1055 27.8612 68.498 27.4529C96.7757 26.5213 125.515 27.1409 153.754 28.2901C185.219 29.5706 217.025 30.6437 247.861 23.8012C277.101 17.3128 307.069 6.81686 337.066 3.82266C374.306 0.105604 410.71 -1.60343 447.567 5.1304C489.954 12.8749 533.078 10.5032 576.098 9.68108C607.974 9.07196 638.72 11.9135 670.437 13.9322C714.24 16.7203 758.316 14.4929 802.204 14.6654C851.757 14.8602 901.301 13.5565 950.849 12.6097C972.242 12.2009 993.737 11.2362 1015.12 11.942C1030.53 12.4503 1045.61 15.0568 1061.05 15.3245C1099.9 15.9981 1139.47 11.006 1178.08 15.3303C1191.87 16.8751 1207.63 20.8195 1221.58 20.553C1270.96 19.6094 1320.65 19.9105 1369.67 13.1827C1389.83 10.4155 1410.31 11.2446 1430.57 8.99199C1441.94 7.72686 1453.6 8.04733 1465.05 7.82843" stroke="#758554" stroke-opacity="0.5" stroke-linecap="round"/>
</svg>
