<svg width="1466" height="38" viewBox="0 0 1466 38" fill="none" xmlns="http://www.w3.org/2000/svg">
<path d="M1 32.851C11.252 32.1696 20.9838 29.0526 30.7055 26.4059C42.5528 23.1805 55.9257 21.9256 68.3238 21.7542C96.6141 21.3631 125.336 22.5316 153.549 24.2202C184.983 26.1016 216.763 27.7822 247.724 21.53C277.083 15.6015 307.245 5.68004 337.295 3.25952C374.598 0.254644 411.029 -0.758537 447.75 6.67824C489.982 15.2312 533.142 13.6838 576.171 13.6838C608.052 13.6838 638.739 17.1123 670.411 19.7366C714.153 23.361 758.263 21.9762 802.14 22.9872C851.681 24.1287 901.24 23.7718 950.797 23.7718C972.194 23.7718 993.704 23.218 1015.07 24.3323C1030.46 25.1348 1045.5 28.029 1060.93 28.5916C1099.76 30.0074 1139.42 25.7723 1177.93 30.8334C1191.69 32.6414 1207.38 36.8862 1221.32 36.8862C1270.71 36.8862 1320.39 38.1366 1369.53 32.3466C1389.74 29.9651 1410.2 31.1855 1430.49 29.3202C1441.89 28.2726 1453.54 28.8158 1465 28.8158" stroke="#758554" stroke-opacity="0.5" stroke-linecap="round"/>
</svg>
