<svg width="226" height="24" viewBox="0 0 226 24" fill="none" xmlns="http://www.w3.org/2000/svg">
<path d="M220.593 6.36C221.297 6.36 221.857 6.448 222.273 6.624C222.705 6.8 223.033 7.024 223.257 7.296C223.513 7.6 223.697 7.992 223.809 8.472C223.937 8.952 224.001 9.6 224.001 10.416V16.896C224.001 17.568 224.105 18.024 224.313 18.264C224.537 18.504 224.913 18.624 225.441 18.624V19.128C225.121 19.112 224.641 19.096 224.001 19.08C223.377 19.048 222.769 19.032 222.177 19.032C221.521 19.032 220.889 19.048 220.281 19.08C219.673 19.096 219.217 19.112 218.913 19.128V18.624C219.361 18.624 219.673 18.504 219.849 18.264C220.025 18.024 220.113 17.568 220.113 16.896V9.264C220.113 8.896 220.073 8.584 219.993 8.328C219.913 8.056 219.777 7.856 219.585 7.728C219.393 7.584 219.121 7.512 218.769 7.512C218.401 7.512 218.057 7.608 217.737 7.8C217.433 7.992 217.185 8.264 216.993 8.616C216.817 8.952 216.729 9.336 216.729 9.768V16.896C216.729 17.568 216.817 18.024 216.993 18.264C217.169 18.504 217.481 18.624 217.929 18.624V19.128C217.625 19.112 217.185 19.096 216.609 19.08C216.033 19.048 215.449 19.032 214.857 19.032C214.201 19.032 213.545 19.048 212.889 19.08C212.233 19.096 211.737 19.112 211.401 19.128V18.624C211.929 18.624 212.297 18.504 212.505 18.264C212.729 18.024 212.841 17.568 212.841 16.896V9.312C212.841 8.592 212.737 8.064 212.529 7.728C212.321 7.376 211.945 7.2 211.401 7.2V6.696C211.913 6.744 212.409 6.768 212.889 6.768C213.609 6.768 214.289 6.744 214.929 6.696C215.585 6.632 216.185 6.544 216.729 6.432V8.376C217.113 7.64 217.633 7.12 218.289 6.816C218.961 6.512 219.729 6.36 220.593 6.36Z" fill="white"/>
<path d="M205.783 6.36C207.191 6.36 208.295 6.776 209.095 7.608C209.895 8.44 210.295 9.808 210.295 11.712H202.591L202.567 11.256H207.031C207.063 10.472 207.031 9.752 206.935 9.096C206.839 8.424 206.679 7.888 206.455 7.488C206.247 7.088 205.967 6.888 205.615 6.888C205.135 6.888 204.727 7.232 204.391 7.92C204.055 8.608 203.847 9.776 203.767 11.424L203.863 11.592C203.831 11.768 203.815 11.952 203.815 12.144C203.815 12.32 203.815 12.512 203.815 12.72C203.815 13.824 203.959 14.704 204.247 15.36C204.551 16.016 204.927 16.48 205.375 16.752C205.823 17.024 206.287 17.16 206.767 17.16C207.039 17.16 207.343 17.12 207.679 17.04C208.015 16.96 208.367 16.792 208.735 16.536C209.103 16.28 209.455 15.904 209.791 15.408L210.199 15.552C210.023 16.176 209.719 16.792 209.287 17.4C208.871 17.992 208.335 18.488 207.679 18.888C207.023 19.272 206.231 19.464 205.303 19.464C204.247 19.464 203.303 19.248 202.471 18.816C201.639 18.368 200.975 17.672 200.479 16.728C199.999 15.768 199.759 14.52 199.759 12.984C199.759 11.464 200.023 10.216 200.551 9.24C201.079 8.264 201.799 7.544 202.711 7.08C203.623 6.6 204.647 6.36 205.783 6.36Z" fill="white"/>
<path d="M189.937 0.360001V8.376C190.337 7.64 190.865 7.12 191.521 6.816C192.193 6.512 192.961 6.36 193.825 6.36C194.529 6.36 195.089 6.448 195.505 6.624C195.937 6.8 196.265 7.024 196.489 7.296C196.745 7.6 196.929 7.992 197.041 8.472C197.153 8.952 197.209 9.6 197.209 10.416V16.896C197.209 17.568 197.313 18.024 197.521 18.264C197.745 18.504 198.121 18.624 198.649 18.624V19.128C198.345 19.112 197.873 19.096 197.233 19.08C196.609 19.048 195.993 19.032 195.385 19.032C194.745 19.032 194.121 19.048 193.513 19.08C192.905 19.096 192.441 19.112 192.121 19.128V18.624C192.569 18.624 192.881 18.504 193.057 18.264C193.233 18.024 193.321 17.568 193.321 16.896V9.264C193.321 8.896 193.281 8.584 193.201 8.328C193.121 8.056 192.985 7.856 192.793 7.728C192.617 7.584 192.353 7.512 192.001 7.512C191.633 7.512 191.289 7.608 190.969 7.8C190.665 7.976 190.417 8.24 190.225 8.592C190.033 8.928 189.937 9.32 189.937 9.768V16.896C189.937 17.568 190.025 18.024 190.201 18.264C190.393 18.504 190.705 18.624 191.137 18.624V19.128C190.849 19.112 190.417 19.096 189.841 19.08C189.265 19.048 188.673 19.032 188.065 19.032C187.425 19.032 186.769 19.048 186.097 19.08C185.441 19.096 184.945 19.112 184.609 19.128V18.624C185.137 18.624 185.505 18.504 185.713 18.264C185.937 18.024 186.049 17.568 186.049 16.896V3.24C186.049 2.52 185.945 1.992 185.737 1.656C185.545 1.304 185.169 1.128 184.609 1.128V0.624002C185.121 0.672002 185.617 0.696002 186.097 0.696002C186.833 0.696002 187.521 0.672002 188.161 0.624002C188.801 0.560001 189.393 0.472001 189.937 0.360001Z" fill="white"/>
<path d="M179.017 6.36C179.689 6.36 180.289 6.432 180.817 6.576C181.345 6.704 181.777 6.872 182.113 7.08C182.529 7.336 182.865 7.664 183.121 8.064C183.377 8.464 183.505 8.928 183.505 9.456C183.505 10.064 183.305 10.576 182.905 10.992C182.505 11.392 182.001 11.592 181.393 11.592C180.769 11.592 180.273 11.408 179.905 11.04C179.553 10.672 179.377 10.2 179.377 9.624C179.377 9.064 179.553 8.592 179.905 8.208C180.257 7.824 180.673 7.568 181.153 7.44C181.025 7.312 180.857 7.208 180.649 7.128C180.457 7.048 180.225 7.008 179.953 7.008C179.409 7.008 178.953 7.168 178.585 7.488C178.217 7.792 177.913 8.216 177.673 8.76C177.449 9.288 177.281 9.888 177.169 10.56C177.073 11.216 177.025 11.896 177.025 12.6C177.025 13.784 177.177 14.712 177.481 15.384C177.801 16.04 178.193 16.504 178.657 16.776C179.137 17.032 179.625 17.16 180.121 17.16C180.377 17.16 180.673 17.12 181.009 17.04C181.345 16.96 181.697 16.792 182.065 16.536C182.449 16.28 182.809 15.896 183.145 15.384L183.553 15.528C183.377 16.152 183.081 16.768 182.665 17.376C182.249 17.984 181.713 18.488 181.057 18.888C180.401 19.272 179.601 19.464 178.657 19.464C177.601 19.464 176.641 19.248 175.777 18.816C174.929 18.384 174.249 17.688 173.737 16.728C173.225 15.768 172.969 14.512 172.969 12.96C172.969 11.456 173.233 10.224 173.761 9.264C174.289 8.288 175.009 7.56 175.921 7.08C176.849 6.6 177.881 6.36 179.017 6.36Z" fill="white"/>
<path d="M169.641 2.784V6.696H172.233V7.176H169.641V16.992C169.641 17.392 169.713 17.68 169.857 17.856C170.001 18.016 170.217 18.096 170.505 18.096C170.745 18.096 170.993 18.016 171.249 17.856C171.521 17.696 171.769 17.424 171.993 17.04L172.377 17.28C172.073 17.936 171.649 18.464 171.105 18.864C170.577 19.264 169.881 19.464 169.017 19.464C168.489 19.464 168.017 19.392 167.601 19.248C167.201 19.12 166.865 18.92 166.593 18.648C166.241 18.296 166.009 17.864 165.897 17.352C165.801 16.824 165.753 16.144 165.753 15.312V7.176H163.833V6.696H165.753V3.696C166.505 3.696 167.193 3.624 167.817 3.48C168.457 3.336 169.065 3.104 169.641 2.784Z" fill="white"/>
<path d="M159.891 0.432007C160.643 0.432007 161.227 0.600007 161.643 0.936007C162.075 1.27201 162.291 1.76001 162.291 2.40001C162.291 3.04001 162.075 3.52801 161.643 3.86401C161.227 4.20001 160.643 4.36801 159.891 4.36801C159.139 4.36801 158.547 4.20001 158.115 3.86401C157.699 3.52801 157.491 3.04001 157.491 2.40001C157.491 1.76001 157.699 1.27201 158.115 0.936007C158.547 0.600007 159.139 0.432007 159.891 0.432007ZM162.003 6.43201V16.896C162.003 17.568 162.107 18.024 162.315 18.264C162.539 18.504 162.915 18.624 163.443 18.624V19.128C163.123 19.112 162.651 19.096 162.027 19.08C161.403 19.048 160.771 19.032 160.131 19.032C159.491 19.032 158.835 19.048 158.163 19.08C157.507 19.096 157.011 19.112 156.675 19.128V18.624C157.203 18.624 157.571 18.504 157.779 18.264C158.003 18.024 158.115 17.568 158.115 16.896V9.31201C158.115 8.59201 158.011 8.06401 157.803 7.72801C157.595 7.37601 157.219 7.20001 156.675 7.20001V6.69601C157.187 6.74401 157.683 6.76801 158.163 6.76801C158.883 6.76801 159.563 6.74401 160.203 6.69601C160.859 6.63201 161.459 6.54401 162.003 6.43201Z" fill="white"/>
<path d="M147.562 0.360001V16.896C147.562 17.568 147.666 18.024 147.874 18.264C148.082 18.504 148.442 18.624 148.954 18.624V19.128C148.65 19.112 148.194 19.096 147.586 19.08C146.978 19.048 146.354 19.032 145.714 19.032C145.058 19.032 144.394 19.048 143.722 19.08C143.066 19.096 142.57 19.112 142.234 19.128V18.624C142.762 18.624 143.13 18.504 143.338 18.264C143.562 18.024 143.674 17.568 143.674 16.896V3.24C143.674 2.52 143.57 1.992 143.362 1.656C143.17 1.304 142.794 1.128 142.234 1.128V0.624002C142.746 0.672002 143.242 0.696002 143.722 0.696002C144.458 0.696002 145.146 0.672002 145.786 0.624002C146.426 0.560001 147.018 0.472001 147.562 0.360001ZM155.482 6.696V7.176C154.938 7.304 154.394 7.552 153.85 7.92C153.306 8.272 152.754 8.728 152.194 9.288L150.85 10.656L151.042 10.272L155.026 17.376C155.186 17.648 155.346 17.896 155.506 18.12C155.682 18.344 155.89 18.512 156.13 18.624V19.128C155.89 19.112 155.506 19.096 154.978 19.08C154.466 19.048 153.946 19.032 153.418 19.032C152.81 19.032 152.194 19.048 151.57 19.08C150.962 19.096 150.498 19.112 150.178 19.128V18.624C150.498 18.624 150.714 18.552 150.826 18.408C150.938 18.264 150.922 18.064 150.778 17.808L148.546 13.44C148.402 13.168 148.242 12.992 148.066 12.912C147.906 12.832 147.706 12.792 147.466 12.792V12.336C147.738 12.32 147.978 12.28 148.186 12.216C148.41 12.152 148.618 12.032 148.81 11.856L150.634 10.104C151.194 9.576 151.474 9.104 151.474 8.688C151.49 8.256 151.314 7.904 150.946 7.632C150.594 7.36 150.138 7.208 149.578 7.176V6.696C150.026 6.712 150.514 6.728 151.042 6.744C151.586 6.76 152.05 6.768 152.434 6.768C152.754 6.768 153.106 6.768 153.49 6.768C153.89 6.752 154.266 6.744 154.618 6.744C154.986 6.728 155.274 6.712 155.482 6.696Z" fill="white"/>
<path d="M131.367 6.36C132.071 6.36 132.631 6.448 133.047 6.624C133.479 6.8 133.807 7.024 134.031 7.296C134.287 7.6 134.471 7.992 134.583 8.472C134.711 8.952 134.775 9.6 134.775 10.416V16.896C134.775 17.568 134.879 18.024 135.087 18.264C135.311 18.504 135.687 18.624 136.215 18.624V19.128C135.895 19.112 135.415 19.096 134.775 19.08C134.151 19.048 133.543 19.032 132.951 19.032C132.295 19.032 131.663 19.048 131.055 19.08C130.447 19.096 129.991 19.112 129.687 19.128V18.624C130.135 18.624 130.447 18.504 130.623 18.264C130.799 18.024 130.887 17.568 130.887 16.896V9.264C130.887 8.896 130.847 8.584 130.767 8.328C130.687 8.056 130.551 7.856 130.359 7.728C130.167 7.584 129.895 7.512 129.543 7.512C129.175 7.512 128.831 7.608 128.511 7.8C128.207 7.992 127.959 8.264 127.767 8.616C127.591 8.952 127.503 9.336 127.503 9.768V16.896C127.503 17.568 127.591 18.024 127.767 18.264C127.943 18.504 128.255 18.624 128.703 18.624V19.128C128.399 19.112 127.959 19.096 127.383 19.08C126.807 19.048 126.223 19.032 125.631 19.032C124.975 19.032 124.319 19.048 123.663 19.08C123.007 19.096 122.511 19.112 122.175 19.128V18.624C122.703 18.624 123.071 18.504 123.279 18.264C123.503 18.024 123.615 17.568 123.615 16.896V9.312C123.615 8.592 123.511 8.064 123.303 7.728C123.095 7.376 122.719 7.2 122.175 7.2V6.696C122.687 6.744 123.183 6.768 123.663 6.768C124.383 6.768 125.063 6.744 125.703 6.696C126.359 6.632 126.959 6.544 127.503 6.432V8.376C127.887 7.64 128.407 7.12 129.063 6.816C129.735 6.512 130.503 6.36 131.367 6.36Z" fill="white"/>
<path d="M116.556 6.36C117.964 6.36 119.068 6.776 119.868 7.608C120.668 8.44 121.068 9.808 121.068 11.712H113.364L113.34 11.256H117.804C117.836 10.472 117.804 9.752 117.708 9.096C117.612 8.424 117.452 7.888 117.228 7.488C117.02 7.088 116.74 6.888 116.388 6.888C115.908 6.888 115.5 7.232 115.164 7.92C114.828 8.608 114.62 9.776 114.54 11.424L114.636 11.592C114.604 11.768 114.588 11.952 114.588 12.144C114.588 12.32 114.588 12.512 114.588 12.72C114.588 13.824 114.732 14.704 115.02 15.36C115.324 16.016 115.7 16.48 116.148 16.752C116.596 17.024 117.06 17.16 117.54 17.16C117.812 17.16 118.116 17.12 118.452 17.04C118.788 16.96 119.14 16.792 119.508 16.536C119.876 16.28 120.228 15.904 120.564 15.408L120.972 15.552C120.796 16.176 120.492 16.792 120.06 17.4C119.644 17.992 119.108 18.488 118.452 18.888C117.796 19.272 117.004 19.464 116.076 19.464C115.02 19.464 114.076 19.248 113.244 18.816C112.412 18.368 111.748 17.672 111.252 16.728C110.772 15.768 110.532 14.52 110.532 12.984C110.532 11.464 110.796 10.216 111.324 9.24C111.852 8.264 112.572 7.544 113.484 7.08C114.396 6.6 115.42 6.36 116.556 6.36Z" fill="white"/>
<path d="M104.462 6.36C105.87 6.36 106.974 6.776 107.774 7.608C108.574 8.44 108.974 9.808 108.974 11.712H101.27L101.246 11.256H105.71C105.742 10.472 105.71 9.752 105.614 9.096C105.518 8.424 105.358 7.888 105.134 7.488C104.926 7.088 104.646 6.888 104.294 6.888C103.814 6.888 103.406 7.232 103.07 7.92C102.734 8.608 102.526 9.776 102.446 11.424L102.542 11.592C102.51 11.768 102.494 11.952 102.494 12.144C102.494 12.32 102.494 12.512 102.494 12.72C102.494 13.824 102.638 14.704 102.926 15.36C103.23 16.016 103.606 16.48 104.054 16.752C104.502 17.024 104.966 17.16 105.446 17.16C105.718 17.16 106.022 17.12 106.358 17.04C106.694 16.96 107.046 16.792 107.414 16.536C107.782 16.28 108.134 15.904 108.47 15.408L108.878 15.552C108.702 16.176 108.398 16.792 107.966 17.4C107.55 17.992 107.014 18.488 106.358 18.888C105.702 19.272 104.91 19.464 103.982 19.464C102.926 19.464 101.982 19.248 101.15 18.816C100.318 18.368 99.6545 17.672 99.1585 16.728C98.6785 15.768 98.4385 14.52 98.4385 12.984C98.4385 11.464 98.7025 10.216 99.2305 9.24C99.7585 8.264 100.478 7.544 101.39 7.08C102.302 6.6 103.326 6.36 104.462 6.36Z" fill="white"/>
<path d="M95.5849 6.36C96.1289 6.36 96.5609 6.48 96.8809 6.72C97.2009 6.944 97.4329 7.24 97.5769 7.608C97.7209 7.96 97.7929 8.312 97.7929 8.664C97.7929 9.32 97.6009 9.848 97.2169 10.248C96.8489 10.648 96.3609 10.848 95.7529 10.848C95.1129 10.848 94.6249 10.704 94.2889 10.416C93.9529 10.112 93.7849 9.712 93.7849 9.216C93.7849 8.72 93.8889 8.312 94.0969 7.992C94.3209 7.672 94.5929 7.4 94.9129 7.176C94.6729 7.144 94.4409 7.176 94.2169 7.272C93.9609 7.336 93.7209 7.456 93.4969 7.632C93.2729 7.808 93.0809 8.016 92.9209 8.256C92.7609 8.496 92.6329 8.76 92.5369 9.048C92.4569 9.32 92.4169 9.6 92.4169 9.888V16.656C92.4169 17.424 92.5849 17.944 92.9209 18.216C93.2729 18.488 93.8249 18.624 94.5769 18.624V19.128C94.2089 19.112 93.6649 19.096 92.9449 19.08C92.2249 19.048 91.4809 19.032 90.7129 19.032C90.0249 19.032 89.3289 19.048 88.6249 19.08C87.9369 19.096 87.4249 19.112 87.0889 19.128V18.624C87.6169 18.624 87.9849 18.504 88.1929 18.264C88.4169 18.024 88.5289 17.568 88.5289 16.896V9.312C88.5289 8.592 88.4249 8.064 88.2169 7.728C88.0089 7.376 87.6329 7.2 87.0889 7.2V6.696C87.6009 6.744 88.0969 6.768 88.5769 6.768C89.2969 6.768 89.9769 6.744 90.6169 6.696C91.2729 6.632 91.8729 6.544 92.4169 6.432V8.4C92.6089 7.984 92.8569 7.624 93.1609 7.32C93.4809 7.016 93.8409 6.784 94.2409 6.624C94.6569 6.448 95.1049 6.36 95.5849 6.36Z" fill="white"/>
<path d="M78.3159 23.64C77.2759 23.64 76.3639 23.552 75.5799 23.376C74.7959 23.216 74.1879 22.968 73.7559 22.632C73.3239 22.312 73.1079 21.92 73.1079 21.456C73.1079 20.976 73.3319 20.536 73.7799 20.136C74.2279 19.752 74.9159 19.448 75.8439 19.224L76.0599 19.608C75.7879 19.88 75.5959 20.144 75.4839 20.4C75.3719 20.672 75.3159 20.936 75.3159 21.192C75.3159 21.848 75.6119 22.352 76.2039 22.704C76.7959 23.056 77.6119 23.232 78.6519 23.232C79.3719 23.232 79.9959 23.128 80.5239 22.92C81.0519 22.728 81.4599 22.448 81.7479 22.08C82.0359 21.712 82.1799 21.28 82.1799 20.784C82.1799 20.32 82.0039 19.928 81.6519 19.608C81.3159 19.288 80.6279 19.128 79.5879 19.128H78.1959C77.5079 19.128 76.9159 19.04 76.4199 18.864C75.9239 18.688 75.5399 18.44 75.2679 18.12C75.0119 17.8 74.8839 17.4 74.8839 16.92C74.8839 16.2 75.1639 15.592 75.7239 15.096C76.2839 14.584 77.0599 14.112 78.0519 13.68L78.2679 13.872C78.0279 14.016 77.7959 14.184 77.5719 14.376C77.3639 14.568 77.2599 14.824 77.2599 15.144C77.2599 15.656 77.5639 15.912 78.1719 15.912H80.6439C81.6039 15.912 82.4519 16.024 83.1879 16.248C83.9239 16.456 84.4999 16.808 84.9159 17.304C85.3479 17.784 85.5639 18.416 85.5639 19.2C85.5639 20 85.3079 20.736 84.7959 21.408C84.2839 22.08 83.4919 22.616 82.4199 23.016C81.3639 23.432 79.9959 23.64 78.3159 23.64ZM78.6279 14.016C77.6679 14.016 76.8119 13.88 76.0599 13.608C75.3239 13.336 74.7399 12.92 74.3079 12.36C73.8759 11.784 73.6599 11.056 73.6599 10.176C73.6599 9.29601 73.8759 8.57601 74.3079 8.01601C74.7399 7.45601 75.3239 7.04001 76.0599 6.76801C76.8119 6.49601 77.6679 6.36001 78.6279 6.36001C79.5719 6.36001 80.4199 6.49601 81.1719 6.76801C81.9239 7.04001 82.5159 7.45601 82.9479 8.01601C83.3799 8.57601 83.5959 9.29601 83.5959 10.176C83.5959 11.056 83.3799 11.784 82.9479 12.36C82.5159 12.92 81.9239 13.336 81.1719 13.608C80.4199 13.88 79.5719 14.016 78.6279 14.016ZM78.6279 13.584C78.9799 13.584 79.2599 13.336 79.4679 12.84C79.6919 12.344 79.8039 11.456 79.8039 10.176C79.8039 8.89601 79.6919 8.01601 79.4679 7.53601C79.2599 7.04001 78.9799 6.79201 78.6279 6.79201C78.2599 6.79201 77.9719 7.04001 77.7639 7.53601C77.5559 8.01601 77.4519 8.89601 77.4519 10.176C77.4519 11.456 77.5559 12.344 77.7639 12.84C77.9719 13.336 78.2599 13.584 78.6279 13.584ZM82.4439 8.44801L81.9399 8.28001C82.1959 7.62401 82.5879 7.09601 83.1159 6.69601C83.6599 6.28001 84.2519 6.07201 84.8919 6.07201C85.4199 6.07201 85.8119 6.21601 86.0679 6.50401C86.3399 6.79201 86.4759 7.16801 86.4759 7.63201C86.4759 8.09601 86.3479 8.45601 86.0919 8.71201C85.8519 8.95201 85.5639 9.07201 85.2279 9.07201C84.9399 9.07201 84.6759 8.97601 84.4359 8.78401C84.1959 8.57601 84.0599 8.27201 84.0279 7.87201C83.9959 7.45601 84.1399 6.93601 84.4599 6.31201L84.6039 6.45601C84.0119 6.66401 83.5559 6.92001 83.2359 7.22401C82.9319 7.52801 82.6679 7.93601 82.4439 8.44801Z" fill="white"/>
<path d="M62.4391 6.36C63.1111 6.36 63.7111 6.432 64.2391 6.576C64.7671 6.704 65.1991 6.872 65.5351 7.08C65.9511 7.336 66.2871 7.664 66.5431 8.064C66.7991 8.464 66.9271 8.928 66.9271 9.456C66.9271 10.064 66.7271 10.576 66.3271 10.992C65.9271 11.392 65.4231 11.592 64.8151 11.592C64.1911 11.592 63.6951 11.408 63.3271 11.04C62.9751 10.672 62.7991 10.2 62.7991 9.624C62.7991 9.064 62.9751 8.592 63.3271 8.208C63.6791 7.824 64.0951 7.568 64.5751 7.44C64.4471 7.312 64.2791 7.208 64.0711 7.128C63.8791 7.048 63.6471 7.008 63.3751 7.008C62.8311 7.008 62.3751 7.168 62.0071 7.488C61.6391 7.792 61.3351 8.216 61.0951 8.76C60.8711 9.288 60.7031 9.888 60.5911 10.56C60.4951 11.216 60.4471 11.896 60.4471 12.6C60.4471 13.784 60.5991 14.712 60.9031 15.384C61.2231 16.04 61.6151 16.504 62.0791 16.776C62.5591 17.032 63.0471 17.16 63.5431 17.16C63.7991 17.16 64.0951 17.12 64.4311 17.04C64.7671 16.96 65.1191 16.792 65.4871 16.536C65.8711 16.28 66.2311 15.896 66.5671 15.384L66.9751 15.528C66.7991 16.152 66.5031 16.768 66.0871 17.376C65.6711 17.984 65.1351 18.488 64.4791 18.888C63.8231 19.272 63.0231 19.464 62.0791 19.464C61.0231 19.464 60.0631 19.248 59.1991 18.816C58.3511 18.384 57.6711 17.688 57.1591 16.728C56.6471 15.768 56.3911 14.512 56.3911 12.96C56.3911 11.456 56.6551 10.224 57.1831 9.264C57.7111 8.288 58.4311 7.56 59.3431 7.08C60.2711 6.6 61.3031 6.36 62.4391 6.36Z" fill="white"/>
<path d="M51.6096 0.432007C52.3616 0.432007 52.9456 0.600007 53.3616 0.936007C53.7936 1.27201 54.0096 1.76001 54.0096 2.40001C54.0096 3.04001 53.7936 3.52801 53.3616 3.86401C52.9456 4.20001 52.3616 4.36801 51.6096 4.36801C50.8576 4.36801 50.2656 4.20001 49.8336 3.86401C49.4176 3.52801 49.2096 3.04001 49.2096 2.40001C49.2096 1.76001 49.4176 1.27201 49.8336 0.936007C50.2656 0.600007 50.8576 0.432007 51.6096 0.432007ZM53.7216 6.43201V16.896C53.7216 17.568 53.8256 18.024 54.0336 18.264C54.2576 18.504 54.6336 18.624 55.1616 18.624V19.128C54.8416 19.112 54.3696 19.096 53.7456 19.08C53.1216 19.048 52.4896 19.032 51.8496 19.032C51.2096 19.032 50.5536 19.048 49.8816 19.08C49.2256 19.096 48.7296 19.112 48.3936 19.128V18.624C48.9216 18.624 49.2896 18.504 49.4976 18.264C49.7216 18.024 49.8336 17.568 49.8336 16.896V9.31201C49.8336 8.59201 49.7296 8.06401 49.5216 7.72801C49.3136 7.37601 48.9376 7.20001 48.3936 7.20001V6.69601C48.9056 6.74401 49.4016 6.76801 49.8816 6.76801C50.6016 6.76801 51.2816 6.74401 51.9216 6.69601C52.5776 6.63201 53.1776 6.54401 53.7216 6.43201Z" fill="white"/>
<path d="M39.6206 23.64C38.5806 23.64 37.6686 23.552 36.8846 23.376C36.1006 23.216 35.4926 22.968 35.0606 22.632C34.6286 22.312 34.4126 21.92 34.4126 21.456C34.4126 20.976 34.6366 20.536 35.0846 20.136C35.5326 19.752 36.2206 19.448 37.1486 19.224L37.3646 19.608C37.0926 19.88 36.9006 20.144 36.7886 20.4C36.6766 20.672 36.6206 20.936 36.6206 21.192C36.6206 21.848 36.9166 22.352 37.5086 22.704C38.1006 23.056 38.9166 23.232 39.9566 23.232C40.6766 23.232 41.3006 23.128 41.8286 22.92C42.3566 22.728 42.7646 22.448 43.0526 22.08C43.3406 21.712 43.4846 21.28 43.4846 20.784C43.4846 20.32 43.3086 19.928 42.9566 19.608C42.6206 19.288 41.9326 19.128 40.8926 19.128H39.5006C38.8126 19.128 38.2206 19.04 37.7246 18.864C37.2286 18.688 36.8446 18.44 36.5726 18.12C36.3166 17.8 36.1886 17.4 36.1886 16.92C36.1886 16.2 36.4686 15.592 37.0286 15.096C37.5886 14.584 38.3646 14.112 39.3566 13.68L39.5726 13.872C39.3326 14.016 39.1006 14.184 38.8766 14.376C38.6686 14.568 38.5646 14.824 38.5646 15.144C38.5646 15.656 38.8686 15.912 39.4766 15.912H41.9486C42.9086 15.912 43.7566 16.024 44.4926 16.248C45.2286 16.456 45.8046 16.808 46.2206 17.304C46.6526 17.784 46.8686 18.416 46.8686 19.2C46.8686 20 46.6126 20.736 46.1006 21.408C45.5886 22.08 44.7966 22.616 43.7246 23.016C42.6686 23.432 41.3006 23.64 39.6206 23.64ZM39.9326 14.016C38.9726 14.016 38.1166 13.88 37.3646 13.608C36.6286 13.336 36.0446 12.92 35.6126 12.36C35.1806 11.784 34.9646 11.056 34.9646 10.176C34.9646 9.29601 35.1806 8.57601 35.6126 8.01601C36.0446 7.45601 36.6286 7.04001 37.3646 6.76801C38.1166 6.49601 38.9726 6.36001 39.9326 6.36001C40.8766 6.36001 41.7246 6.49601 42.4766 6.76801C43.2286 7.04001 43.8206 7.45601 44.2526 8.01601C44.6846 8.57601 44.9006 9.29601 44.9006 10.176C44.9006 11.056 44.6846 11.784 44.2526 12.36C43.8206 12.92 43.2286 13.336 42.4766 13.608C41.7246 13.88 40.8766 14.016 39.9326 14.016ZM39.9326 13.584C40.2846 13.584 40.5646 13.336 40.7726 12.84C40.9966 12.344 41.1086 11.456 41.1086 10.176C41.1086 8.89601 40.9966 8.01601 40.7726 7.53601C40.5646 7.04001 40.2846 6.79201 39.9326 6.79201C39.5646 6.79201 39.2766 7.04001 39.0686 7.53601C38.8606 8.01601 38.7566 8.89601 38.7566 10.176C38.7566 11.456 38.8606 12.344 39.0686 12.84C39.2766 13.336 39.5646 13.584 39.9326 13.584ZM43.7486 8.44801L43.2446 8.28001C43.5006 7.62401 43.8926 7.09601 44.4206 6.69601C44.9646 6.28001 45.5566 6.07201 46.1966 6.07201C46.7246 6.07201 47.1166 6.21601 47.3726 6.50401C47.6446 6.79201 47.7806 7.16801 47.7806 7.63201C47.7806 8.09601 47.6526 8.45601 47.3966 8.71201C47.1566 8.95201 46.8686 9.07201 46.5326 9.07201C46.2446 9.07201 45.9806 8.97601 45.7406 8.78401C45.5006 8.57601 45.3646 8.27201 45.3326 7.87201C45.3006 7.45601 45.4446 6.93601 45.7646 6.31201L45.9086 6.45601C45.3166 6.66401 44.8606 6.92001 44.5406 7.22401C44.2366 7.52801 43.9726 7.93601 43.7486 8.44801Z" fill="white"/>
<path d="M25.5949 19.296C24.8589 19.296 24.2509 19.16 23.7709 18.888C23.2909 18.6 22.9389 18.224 22.7149 17.76C22.4909 17.296 22.3789 16.8 22.3789 16.272C22.3789 15.6 22.5309 15.048 22.8349 14.616C23.1549 14.184 23.5629 13.84 24.0589 13.584C24.5549 13.312 25.0749 13.088 25.6189 12.912C26.1629 12.736 26.6829 12.568 27.1789 12.408C27.6749 12.232 28.0749 12.032 28.3789 11.808C28.6829 11.568 28.8349 11.264 28.8349 10.896V8.904C28.8349 8.552 28.7789 8.224 28.6669 7.92C28.5709 7.6 28.3869 7.344 28.1149 7.152C27.8589 6.944 27.4989 6.84 27.0349 6.84C26.7469 6.84 26.4669 6.88 26.1949 6.96C25.9229 7.04 25.6829 7.168 25.4749 7.344C25.9869 7.52 26.3629 7.784 26.6029 8.136C26.8589 8.488 26.9869 8.88 26.9869 9.312C26.9869 9.904 26.7789 10.376 26.3629 10.728C25.9629 11.064 25.4829 11.232 24.9229 11.232C24.3149 11.232 23.8429 11.04 23.5069 10.656C23.1869 10.272 23.0269 9.808 23.0269 9.264C23.0269 8.784 23.1469 8.384 23.3869 8.064C23.6269 7.728 23.9789 7.424 24.4429 7.152C24.9069 6.88 25.4669 6.68 26.1229 6.552C26.7789 6.424 27.4749 6.36 28.2109 6.36C28.9629 6.36 29.6509 6.44 30.2749 6.6C30.9149 6.744 31.4589 7.04 31.9069 7.488C32.2589 7.856 32.4829 8.304 32.5789 8.832C32.6749 9.36 32.7229 10.032 32.7229 10.848V17.328C32.7229 17.728 32.7549 18.008 32.8189 18.168C32.8989 18.312 33.0189 18.384 33.1789 18.384C33.3229 18.384 33.4589 18.344 33.5869 18.264C33.7149 18.184 33.8429 18.096 33.9709 18L34.2349 18.408C33.8829 18.696 33.4669 18.92 32.9869 19.08C32.5069 19.224 31.9869 19.296 31.4269 19.296C30.7869 19.296 30.2829 19.216 29.9149 19.056C29.5629 18.88 29.3069 18.648 29.1469 18.36C29.0029 18.072 28.9229 17.752 28.9069 17.4C28.5549 17.976 28.1149 18.44 27.5869 18.792C27.0589 19.128 26.3949 19.296 25.5949 19.296ZM27.5869 17.568C27.8429 17.568 28.0669 17.52 28.2589 17.424C28.4669 17.312 28.6589 17.128 28.8349 16.872V11.88C28.7069 12.104 28.5309 12.32 28.3069 12.528C28.0989 12.72 27.8749 12.92 27.6349 13.128C27.3949 13.32 27.1629 13.536 26.9389 13.776C26.7309 14.016 26.5549 14.304 26.4109 14.64C26.2829 14.96 26.2189 15.352 26.2189 15.816C26.2189 16.44 26.3469 16.888 26.6029 17.16C26.8589 17.432 27.1869 17.568 27.5869 17.568Z" fill="white"/>
<path d="M21.192 2.136V2.616C20.712 2.632 20.344 2.696 20.088 2.808C19.832 2.904 19.656 3.096 19.56 3.384C19.48 3.656 19.44 4.088 19.44 4.68V16.584C19.44 17.16 19.488 17.592 19.584 17.88C19.68 18.168 19.848 18.36 20.088 18.456C20.344 18.552 20.712 18.616 21.192 18.648V19.128C20.728 19.096 20.128 19.08 19.392 19.08C18.672 19.064 17.936 19.056 17.184 19.056C16.368 19.056 15.6 19.064 14.88 19.08C14.176 19.08 13.6 19.096 13.152 19.128V18.648C13.696 18.616 14.104 18.552 14.376 18.456C14.664 18.36 14.856 18.168 14.952 17.88C15.048 17.592 15.096 17.16 15.096 16.584V3.672L15.312 3.648L9.312 19.128H8.928L2.304 3.696V14.808C2.304 15.784 2.352 16.536 2.448 17.064C2.544 17.576 2.76 17.944 3.096 18.168C3.432 18.392 3.96 18.552 4.68 18.648V19.128C4.376 19.096 3.968 19.08 3.456 19.08C2.96 19.064 2.488 19.056 2.04 19.056C1.688 19.056 1.32 19.064 0.936 19.08C0.568 19.08 0.256 19.096 0 19.128V18.648C0.512 18.552 0.888 18.4 1.128 18.192C1.384 17.968 1.552 17.624 1.632 17.16C1.712 16.68 1.752 16.024 1.752 15.192V4.68C1.752 4.088 1.712 3.656 1.632 3.384C1.552 3.096 1.384 2.904 1.128 2.808C0.872 2.696 0.496 2.632 0 2.616V2.136C0.256 2.152 0.568 2.168 0.936 2.184C1.32 2.2 1.688 2.208 2.04 2.208C2.856 2.208 3.64 2.2 4.392 2.184C5.144 2.168 5.824 2.152 6.432 2.136L11.328 13.56L10.656 14.232L15.288 2.208C15.592 2.208 15.904 2.208 16.224 2.208C16.56 2.208 16.88 2.208 17.184 2.208C17.936 2.208 18.672 2.2 19.392 2.184C20.128 2.168 20.728 2.152 21.192 2.136Z" fill="white"/>
</svg>
