<svg width="16" height="16" viewBox="0 0 16 16" fill="none" xmlns="http://www.w3.org/2000/svg">
<path fill-rule="evenodd" clip-rule="evenodd" d="M12.532 11.924C11.997 10.757 11.034 9.832 9.835 9.358C10.539 8.809 11 7.962 11 7C11 5.344 9.657 4 8 4C6.343 4 5 5.344 5 7C5 7.962 5.461 8.809 6.165 9.358C4.966 9.832 4.003 10.757 3.468 11.924C2.556 10.871 2 9.502 2 8C2 4.687 4.686 2 8 2C11.313 2 14 4.687 14 8C14 9.502 13.444 10.871 12.532 11.924ZM8 8C7.447 8 7 7.553 7 7C7 6.447 7.447 6 8 6C8.553 6 9 6.447 9 7C9 7.553 8.553 8 8 8ZM5.104 13.254C5.437 11.961 6.601 11 8 11C9.398 11 10.562 11.961 10.895 13.254C10.036 13.729 9.051 14 8 14C6.949 14 5.964 13.729 5.104 13.254ZM8 0C3.582 0 0 3.582 0 8C0 12.418 3.582 16 8 16C12.418 16 16 12.418 16 8C16 3.582 12.418 0 8 0Z" fill="#758554"/>
</svg>
