<svg width="41" height="40" viewBox="0 0 41 40" fill="none" xmlns="http://www.w3.org/2000/svg">
<rect x="0.5" width="40" height="40" rx="20" fill="#7C7670"/>
<path d="M15.9647 9.06618C17.138 9.01267 17.5126 9 20.5 9C23.4874 9 23.862 9.01267 25.0353 9.06618C26.2061 9.1196 27.0057 9.30558 27.7054 9.57745C28.4288 9.85857 29.0422 10.2347 29.6538 10.8462C30.2653 11.4577 30.6414 12.0712 30.9225 12.7946C31.1944 13.4943 31.3804 14.2939 31.4338 15.4647C31.4873 16.638 31.5 17.0126 31.5 20C31.5 22.9874 31.4873 23.362 31.4338 24.5353C31.3804 25.7061 31.1944 26.5057 30.9225 27.2054C30.6414 27.9288 30.2653 28.5422 29.6538 29.1538C29.0422 29.7653 28.4288 30.1414 27.7054 30.4225C27.0057 30.6944 26.2061 30.8804 25.0353 30.9338C23.862 30.9873 23.4874 31 20.5 31C17.5126 31 17.138 30.9873 15.9647 30.9338C14.7939 30.8804 13.9943 30.6944 13.2946 30.4225C12.5712 30.1414 11.9578 29.7653 11.3463 29.1538C10.7347 28.5422 10.3586 27.9288 10.0775 27.2054C9.80554 26.5057 9.61963 25.7061 9.56615 24.5353C9.51264 23.362 9.5 22.9874 9.5 20C9.5 17.0126 9.51264 16.638 9.56615 15.4647C9.61963 14.2939 9.80554 13.4943 10.0775 12.7946C10.3586 12.0712 10.7347 11.4577 11.3463 10.8462C11.9578 10.2347 12.5712 9.85857 13.2946 9.57745C13.9943 9.30558 14.7939 9.1196 15.9647 9.06618Z" fill="white"/>
<path d="M20.4993 14.3513C17.3795 14.3513 14.8506 16.8803 14.8506 20C14.8506 23.1196 17.3795 25.6486 20.4993 25.6486C23.6189 25.6486 26.1479 23.1196 26.1479 20C26.1479 16.8803 23.6189 14.3513 20.4993 14.3513ZM27.6911 14.1281C27.6911 14.8572 27.1001 15.4481 26.3711 15.4481C25.6421 15.4481 25.0511 14.8572 25.0511 14.1281C25.0511 13.3991 25.6421 12.8081 26.3711 12.8081C27.1001 12.8081 27.6911 13.3991 27.6911 14.1281Z" fill="#7C7670"/>
<path d="M16.5 20.0029C16.5 22.2111 18.2911 24 20.4985 24C22.7065 24 24.5 22.2111 24.5 20.0029C24.5 17.7912 22.7065 16 20.4985 16C18.2911 16 16.5 17.7912 16.5 20.0029Z" fill="white"/>
</svg>
