<svg width="41" height="40" viewBox="0 0 41 40" fill="none" xmlns="http://www.w3.org/2000/svg">
<rect x="0.5" width="40" height="40" rx="20" fill="#7C7670"/>
<path d="M29.6921 27.185H27.4142C26.5518 27.185 26.2914 26.4853 24.7457 24.9396C23.3951 23.6379 22.8256 23.4751 22.4839 23.4751C22.0121 23.4751 21.8819 23.6053 21.8819 24.2562V26.3064C21.8819 26.8596 21.7029 27.185 20.2548 27.185C18.8496 27.0906 17.4868 26.6637 16.2789 25.9395C15.0709 25.2153 14.0523 24.2145 13.3069 23.0195C11.5372 20.8169 10.3059 18.2317 9.71094 15.4696C9.71094 15.1279 9.84107 14.8188 10.492 14.8188H12.7699C13.3557 14.8188 13.5673 15.0791 13.795 15.6812C14.9014 18.9354 16.789 21.7667 17.5537 21.7667C17.8466 21.7667 17.9767 21.6365 17.9767 20.9043V17.5523C17.8791 16.0229 17.0656 15.8927 17.0656 15.3395C17.0763 15.1935 17.1434 15.0575 17.2528 14.9603C17.3622 14.8631 17.5051 14.8123 17.6513 14.8188H21.2311C21.7192 14.8188 21.8819 15.0628 21.8819 15.6486V20.1721C21.8819 20.6602 22.0934 20.8229 22.2399 20.8229C22.5328 20.8229 22.7605 20.6602 23.2975 20.1233C24.4513 18.7162 25.3941 17.1485 26.0962 15.4696C26.1678 15.2676 26.3037 15.0946 26.4829 14.9771C26.6621 14.8596 26.8749 14.8039 27.0888 14.8188H29.3667C30.0501 14.8188 30.1966 15.1605 30.0501 15.6486C29.2213 17.5048 28.1957 19.2668 26.9911 20.9043C26.7471 21.2785 26.6494 21.4738 26.9911 21.9131C27.2189 22.2548 28.0162 22.9219 28.5532 23.5565C29.3342 24.3355 29.9827 25.2369 30.4731 26.225C30.6684 26.8596 30.343 27.185 29.6921 27.185Z" fill="white"/>
</svg>
