<svg width="40" height="40" viewBox="0 0 40 40" fill="none" xmlns="http://www.w3.org/2000/svg">
<rect width="40" height="40" rx="20" fill="#F0EACF"/>
<path d="M29.1921 27.185H26.9142C26.0518 27.185 25.7914 26.4853 24.2457 24.9396C22.8951 23.6379 22.3256 23.4751 21.9839 23.4751C21.5121 23.4751 21.3819 23.6053 21.3819 24.2562V26.3064C21.3819 26.8596 21.2029 27.185 19.7548 27.185C18.3496 27.0906 16.9868 26.6637 15.7789 25.9395C14.5709 25.2153 13.5523 24.2145 12.8069 23.0195C11.0372 20.8169 9.80595 18.2317 9.21094 15.4696C9.21094 15.1279 9.34107 14.8188 9.99196 14.8188H12.2699C12.8557 14.8188 13.0673 15.0791 13.295 15.6812C14.4014 18.9354 16.289 21.7667 17.0537 21.7667C17.3466 21.7667 17.4767 21.6365 17.4767 20.9043V17.5523C17.3791 16.0229 16.5656 15.8927 16.5656 15.3395C16.5763 15.1935 16.6434 15.0575 16.7528 14.9603C16.8622 14.8631 17.0051 14.8123 17.1513 14.8188H20.7311C21.2192 14.8188 21.3819 15.0628 21.3819 15.6486V20.1721C21.3819 20.6602 21.5934 20.8229 21.7399 20.8229C22.0328 20.8229 22.2605 20.6602 22.7975 20.1233C23.9513 18.7162 24.8941 17.1485 25.5962 15.4696C25.6678 15.2676 25.8037 15.0946 25.9829 14.9771C26.1621 14.8596 26.3749 14.8039 26.5888 14.8188H28.8667C29.5501 14.8188 29.6966 15.1605 29.5501 15.6486C28.7213 17.5048 27.6957 19.2668 26.4911 20.9043C26.2471 21.2785 26.1494 21.4738 26.4911 21.9131C26.7189 22.2548 27.5162 22.9219 28.0532 23.5565C28.8342 24.3355 29.4827 25.2369 29.9731 26.225C30.1684 26.8596 29.843 27.185 29.1921 27.185Z" fill="#758554"/>
</svg>
